# xmcd CD database file
#
# Track frame offsets:
#	150
#	40050
#	98910
#	146473
#	217799
#
# Disc length: 3258 seconds
#
# Revision: 0
# Processed by: cddbd v1.5.1PL0 Copyright (c) Steve Scherf et al.
# Submitted via: CDex 1.51
#
DISCID=3a0cb805
DTITLE=Garaj Mahal - Live At Winston's (March 1, 2002)
DYEAR=2002
DGENRE=Jazz
TTITLE0=7-Up
TTITLE1=Mondo Garaj
TTITLE2=B-Dope
TTITLE3=Beware My Ethnic Heart
TTITLE4=Jan Jan
EXTD=YEAR: 2002
EXTT0=
EXTT1=
EXTT2=
EXTT3=
EXTT4=
PLAYORDER=
